# xmcd
#
# Track frame offsets:
#	150
#	19429
#	46182
#	57574
#	74889
#	99063
#	120795
#	141659
#	167179
#	185076
#	203459
#	224455
#	240079
#	254135
#
# Disc length: 3908 seconds
#
# Revision: 1
# Processed by: cddbd v1.5.2PL0 Copyright (c) Steve Scherf et al.
# Submitted via: audiograbber 1.83.01
#
DISCID=d30f420e
DTITLE=Various Artist - High Endition Volume 15 - Dancing With The Blues
DYEAR=2011
DGENRE=Blues
TTITLE0=Chris Farlow - All The Way Lover
TTITLE1=Jenny Bohman - The Pary Is Over
TTITLE2=Peder af Ugglas - In Between
TTITLE3=Eilen Jewell - I Remember You
TTITLE4=Jeffrey Foucault - Horse Latitudes
TTITLE5=OK Star Orchester - Johnny Sordin
TTITLE6=Eric Bibb - Wayfaring Stranger
TTITLE7=Blues Company - Old Blues Singer
TTITLE8=Chris Farlow - Ain't No Love
TTITLE9=OK Star Orchester - Ela Ela
TTITLE10=Matthews' Southern Comfort - Road To Ronderlin
TTITLE11=Ewen Carruthers - Information Getting Lost
TTITLE12=Eric Bibb - Victory Voices
TTITLE13=David Munyon - Hollywood Town
EXTD=
EXTT0=
EXTT1=
EXTT2=
EXTT3=
EXTT4=
EXTT5=
EXTT6=
EXTT7=
EXTT8=
EXTT9=
EXTT10=
EXTT11=
EXTT12=
EXTT13=
PLAYORDER=
